<svg width="1440" height="1024" viewBox="0 0 1440 1024" fill="none" xmlns="http://www.w3.org/2000/svg">
<g clip-path="url(#clip0_14_46)">
<rect width="1440" height="1024" fill="#282828"/>
<path d="M1 0H1440V499.725C1440 499.725 887.808 600.666 609.907 510.623C332.006 420.58 1 499.725 1 499.725V0Z" fill="#353535"/>
<path d="M1274.02 125.605C1274.02 120.082 1278.5 115.605 1284.02 115.605H1293.28V161.084H1284.02C1278.5 161.084 1274.02 156.606 1274.02 151.084V125.605Z" fill="#2A4865"/>
<path d="M1294.3 136.559C1294.3 148.925 1290.08 146.453 1286.01 153.326C1274.77 172.319 1269.31 148.925 1269.31 136.559C1269.31 124.192 1271.84 114 1281.77 114C1282.77 114 1294.3 124.192 1294.3 136.559Z" fill="#2A4865"/>
<path d="M1274.02 147.362L1292.8 129.718L1305 138.879C1290.95 140.328 1293.49 146.824 1292.8 158.943L1274.02 147.362Z" fill="#2A4865"/>
<path d="M1282.02 114H1437.43V129.682C1437.43 135.205 1432.95 139.682 1427.43 139.682H1282.02V114Z" fill="#2A4865"/>
<path d="M1269.52 145.402C1269.52 139.879 1274 135.402 1279.52 135.402H1293.51V200.142H1269.52V145.402Z" fill="#2A4865"/>
<path d="M1129.71 199.952C1129.71 194.429 1134.19 189.952 1139.71 189.952H1148.97V235.431H1139.71C1134.19 235.431 1129.71 230.953 1129.71 225.431V199.952Z" fill="#2A4865"/>
<path d="M1149.99 210.906C1149.99 223.272 1145.77 220.8 1141.7 227.672C1130.46 246.666 1125 223.272 1125 210.906C1125 198.539 1127.53 188.347 1137.46 188.347C1138.45 188.347 1149.99 198.539 1149.99 210.906Z" fill="#2A4865"/>
<path d="M1129.71 221.709L1148.49 204.065L1160.69 213.226C1146.64 214.675 1149.18 221.171 1148.49 233.29L1129.71 221.709Z" fill="#2A4865"/>
<path d="M1137.71 188.347H1293.12V204.029C1293.12 209.552 1288.64 214.029 1283.12 214.029H1137.71V188.347Z" fill="#2A4865"/>
<path d="M1269.13 166.41H1293.12V188.347H1269.13V166.41Z" fill="#2A4865"/>
<path d="M1125.21 219.749C1125.21 214.226 1129.69 209.749 1135.21 209.749H1149.2V274.489H1125.21V219.749Z" fill="#2A4865"/>
<path d="M1129.71 199.952C1129.71 194.429 1134.19 189.952 1139.71 189.952H1148.97V235.431H1139.71C1134.19 235.431 1129.71 230.953 1129.71 225.431V199.952Z" fill="#2A4865"/>
<path d="M1149.99 210.906C1149.99 223.272 1145.77 220.8 1141.7 227.672C1130.46 246.666 1125 223.272 1125 210.906C1125 198.539 1127.53 188.347 1137.46 188.347C1138.45 188.347 1149.99 198.539 1149.99 210.906Z" fill="#2A4865"/>
<path d="M1129.71 221.709L1148.49 204.065L1160.69 213.226C1146.64 214.675 1149.18 221.171 1148.49 233.29L1129.71 221.709Z" fill="#2A4865"/>
<path d="M1137.71 188.347H1293.12V204.029C1293.12 209.552 1288.64 214.029 1283.12 214.029H1137.71V188.347Z" fill="#2A4865"/>
<path d="M1269.13 166.41H1293.12V188.347H1269.13V166.41Z" fill="#2A4865"/>
<path d="M1125.21 219.749C1125.21 214.226 1129.69 209.749 1135.21 209.749H1149.2V274.489H1125.21V219.749Z" fill="#2A4865"/>
<path d="M1432.64 197.319C1432.64 202.842 1428.16 207.319 1422.64 207.319L1413.74 207.319L1413.74 162.704L1422.64 162.704C1428.16 162.704 1432.64 167.181 1432.64 172.704L1432.64 197.319Z" fill="#D3C16B"/>
<path d="M1412.75 186.763C1412.75 174.632 1416.88 177.057 1420.87 170.315C1431.9 151.682 1437.26 174.632 1437.26 186.763C1437.26 198.894 1434.77 208.893 1425.04 208.893C1424.06 208.893 1412.75 198.894 1412.75 186.763Z" fill="#D3C16B"/>
<path d="M1432.63 176.165L1414.22 193.474L1402.24 184.487C1416.03 183.065 1413.54 176.692 1414.22 164.804L1432.63 176.165Z" fill="#D3C16B"/>
<path d="M1424.79 208.893L1272.33 208.893L1272.33 193.699C1272.33 188.176 1276.81 183.699 1282.33 183.699L1424.79 183.699L1424.79 208.893Z" fill="#D3C16B"/>
<path d="M1295.86 230.413L1272.33 230.413L1272.33 208.893L1295.86 208.893L1295.86 230.413Z" fill="#D3C16B"/>
<path d="M1437.17 177.745C1437.17 183.267 1432.69 187.745 1427.17 187.745L1413.62 187.745L1413.62 114.044L1437.17 114.044L1437.17 177.745Z" fill="#D3C16B"/>
<path d="M1291.18 266.494C1291.18 272.016 1286.7 276.494 1281.18 276.494L1271.59 276.494L1271.59 231.879L1281.18 231.879C1286.7 231.879 1291.18 236.356 1291.18 241.879L1291.18 266.494Z" fill="#D3C16B"/>
<path d="M1270.56 255.938C1270.56 243.807 1274.84 246.232 1278.98 239.49C1290.41 220.857 1295.97 243.807 1295.97 255.938C1295.97 268.069 1293.39 278.068 1283.3 278.068C1282.28 278.068 1270.56 268.069 1270.56 255.938Z" fill="#D3C16B"/>
<path d="M1291.17 245.34L1272.08 262.649L1259.67 253.661C1273.96 252.24 1271.38 245.867 1272.08 233.979L1291.17 245.34Z" fill="#D3C16B"/>
<path d="M1283.04 278.068L1125 278.068L1125 262.874C1125 257.351 1129.48 252.874 1135 252.874L1283.04 252.874L1283.04 278.068Z" fill="#D3C16B"/>
<path d="M1295.75 247.073C1295.75 252.596 1291.27 257.073 1285.75 257.073L1271.36 257.073L1271.36 193.563L1295.75 193.563L1295.75 247.073Z" fill="#D3C16B"/>
<path d="M1291.18 266.494C1291.18 272.016 1286.7 276.494 1281.18 276.494L1271.59 276.494L1271.59 231.879L1281.18 231.879C1286.7 231.879 1291.18 236.356 1291.18 241.879L1291.18 266.494Z" fill="#D3C16B"/>
<path d="M1270.56 255.938C1270.56 243.807 1274.84 246.232 1278.98 239.49C1290.41 220.857 1295.97 243.807 1295.97 255.938C1295.97 268.069 1293.39 278.068 1283.3 278.068C1282.28 278.068 1270.56 268.069 1270.56 255.938Z" fill="#D3C16B"/>
<path d="M1291.17 245.34L1272.08 262.649L1259.67 253.661C1273.96 252.24 1271.38 245.867 1272.08 233.979L1291.17 245.34Z" fill="#D3C16B"/>
<path d="M1283.04 278.068L1125 278.068L1125 262.874C1125 257.351 1129.48 252.874 1135 252.874L1283.04 252.874L1283.04 278.068Z" fill="#D3C16B"/>
<path d="M1295.75 247.073C1295.75 252.596 1291.27 257.073 1285.75 257.073L1271.36 257.073L1271.36 193.563L1295.75 193.563L1295.75 247.073Z" fill="#D3C16B"/>
<path d="M989.021 264.673C989.021 259.151 993.498 254.673 999.021 254.673H1008.28V300.152H999.021C993.498 300.152 989.021 295.675 989.021 290.152V264.673Z" fill="#2A4865"/>
<path d="M1009.3 275.627C1009.3 287.993 1005.08 285.522 1001.01 292.394C989.771 311.388 984.311 287.993 984.311 275.627C984.311 263.261 986.843 253.068 996.767 253.068C997.766 253.068 1009.3 263.261 1009.3 275.627Z" fill="#2A4865"/>
<path d="M989.024 286.43L1007.8 268.787L1020 277.948C1005.95 279.396 1008.49 285.893 1007.8 298.012L989.024 286.43Z" fill="#2A4865"/>
<path d="M997 253.068H1148V269.068C1148 274.591 1143.52 279.068 1138 279.068H997V253.068Z" fill="#2A4865"/>
<path d="M984.524 284.47C984.524 278.947 989.001 274.47 994.524 274.47H1008.51V339.21H984.524V284.47Z" fill="#2A4865"/>
<path d="M844.71 339.02C844.71 333.498 849.187 329.02 854.71 329.02H863.973V374.499H854.71C849.187 374.499 844.71 370.022 844.71 364.499V339.02Z" fill="#2A4865"/>
<path d="M864.986 349.974C864.986 362.34 860.771 359.868 856.703 366.741C845.459 385.735 840 362.34 840 349.974C840 337.608 842.532 327.415 852.455 327.415C853.455 327.415 864.986 337.608 864.986 349.974Z" fill="#2A4865"/>
<path d="M844.713 360.777L863.488 343.134L875.692 352.295C861.637 353.743 864.176 360.24 863.488 372.359L844.713 360.777Z" fill="#2A4865"/>
<path d="M852.709 327.415H1008.12V343.097C1008.12 348.62 1003.64 353.097 998.121 353.097H852.709V327.415Z" fill="#2A4865"/>
<path d="M984.134 305.479H1008.12V327.415H984.134V305.479Z" fill="#2A4865"/>
<path d="M840.212 358.817C840.212 353.294 844.69 348.817 850.212 348.817H864.199V413.557H840.212V358.817Z" fill="#2A4865"/>
<path d="M844.71 339.02C844.71 333.498 849.187 329.02 854.71 329.02H863.973V374.499H854.71C849.187 374.499 844.71 370.022 844.71 364.499V339.02Z" fill="#2A4865"/>
<path d="M864.986 349.974C864.986 362.34 860.771 359.868 856.703 366.741C845.459 385.735 840 362.34 840 349.974C840 337.608 842.532 327.415 852.455 327.415C853.455 327.415 864.986 337.608 864.986 349.974Z" fill="#2A4865"/>
<path d="M844.713 360.777L863.488 343.134L875.692 352.295C861.637 353.743 864.176 360.24 863.488 372.359L844.713 360.777Z" fill="#2A4865"/>
<path d="M852.709 327.415H1008.12V343.097C1008.12 348.62 1003.64 353.097 998.121 353.097H852.709V327.415Z" fill="#2A4865"/>
<path d="M984.134 305.479H1008.12V327.415H984.134V305.479Z" fill="#2A4865"/>
<path d="M840.212 358.817C840.212 353.294 844.69 348.817 850.212 348.817H864.199V413.557H840.212V358.817Z" fill="#2A4865"/>
<path d="M697.71 409.673C697.71 404.151 702.187 399.673 707.71 399.673H716.973V445.152H707.71C702.187 445.152 697.71 440.675 697.71 435.152V409.673Z" fill="#2A4865"/>
<path d="M717.986 420.627C717.986 432.993 713.771 430.522 709.703 437.394C698.459 456.388 693 432.993 693 420.627C693 408.261 695.532 398.068 705.455 398.068C706.455 398.068 717.986 408.261 717.986 420.627Z" fill="#2A4865"/>
<path d="M697.713 431.43L716.488 413.787L728.692 422.948C714.637 424.396 717.176 430.893 716.488 443.012L697.713 431.43Z" fill="#2A4865"/>
<path d="M705.709 398.068H861.121V413.75C861.121 419.273 856.643 423.75 851.121 423.75H705.709V398.068Z" fill="#2A4865"/>
<path d="M693.212 429.47C693.212 423.947 697.69 419.47 703.212 419.47H717.199V484.21H693.212V429.47Z" fill="#2A4865"/>
<path d="M697.71 409.673C697.71 404.151 702.187 399.673 707.71 399.673H716.973V445.152H707.71C702.187 445.152 697.71 440.675 697.71 435.152V409.673Z" fill="#2A4865"/>
<path d="M717.986 420.627C717.986 432.993 713.771 430.522 709.703 437.394C698.459 456.388 693 432.993 693 420.627C693 408.261 695.532 398.068 705.455 398.068C706.455 398.068 717.986 408.261 717.986 420.627Z" fill="#2A4865"/>
<path d="M697.713 431.43L716.488 413.787L728.692 422.948C714.637 424.396 717.176 430.893 716.488 443.012L697.713 431.43Z" fill="#2A4865"/>
<path d="M705.709 398.068H861.121V413.75C861.121 419.273 856.643 423.75 851.121 423.75H705.709V398.068Z" fill="#2A4865"/>
<path d="M693.212 429.47C693.212 423.947 697.69 419.47 703.212 419.47H717.199V484.21H693.212V429.47Z" fill="#2A4865"/>
<path d="M556.709 464.068H712.121V479.75C712.121 485.273 707.643 489.75 702.121 489.75H556.709V464.068Z" fill="#2A4865"/>
<path d="M556.709 464.068H712.121V479.75C712.121 485.273 707.643 489.75 702.121 489.75H556.709V464.068Z" fill="#2A4865"/>
<path d="M1147.64 336.387C1147.64 341.91 1143.16 346.387 1137.64 346.387L1128.74 346.387L1128.74 301.772L1137.64 301.772C1143.16 301.772 1147.64 306.25 1147.64 311.772L1147.64 336.387Z" fill="#D3C16B"/>
<path d="M1127.75 325.832C1127.75 313.7 1131.88 316.125 1135.87 309.383C1146.9 290.75 1152.26 313.7 1152.26 325.832C1152.26 337.963 1149.77 347.962 1140.04 347.962C1139.06 347.962 1127.75 337.963 1127.75 325.832Z" fill="#D3C16B"/>
<path d="M1147.63 315.234L1129.22 332.542L1117.24 323.555C1131.03 322.134 1128.54 315.761 1129.22 303.872L1147.63 315.234Z" fill="#D3C16B"/>
<path d="M1139.79 347.962L987.33 347.962L987.33 332.767C987.33 327.245 991.808 322.767 997.33 322.767L1139.79 322.767L1139.79 347.962Z" fill="#D3C16B"/>
<path d="M1010.86 369.482L987.33 369.482L987.33 347.962L1010.86 347.962L1010.86 369.482Z" fill="#D3C16B"/>
<path d="M1152.17 316.813C1152.17 322.336 1147.69 326.813 1142.17 326.813L1128.62 326.813L1128.62 253.112L1152.17 253.112L1152.17 316.813Z" fill="#D3C16B"/>
<path d="M1006.18 411.999C1006.18 417.521 1001.7 421.999 996.176 421.999L986.586 421.999L986.586 377.384L996.176 377.384C1001.7 377.384 1006.18 381.861 1006.18 387.384L1006.18 411.999Z" fill="#D3C16B"/>
<path d="M985.557 401.443C985.557 389.312 989.843 391.736 993.979 384.995C1005.41 366.362 1010.97 389.312 1010.97 401.443C1010.97 413.574 1008.39 423.573 998.299 423.573C997.283 423.573 985.557 413.574 985.557 401.443Z" fill="#D3C16B"/>
<path d="M1006.17 390.845L987.079 408.153L974.669 399.166C988.962 397.745 986.381 391.372 987.079 379.483L1006.17 390.845Z" fill="#D3C16B"/>
<path d="M998.041 423.573L840 423.573L840 408.379C840 402.856 844.477 398.379 850 398.379L998.041 398.379L998.041 423.573Z" fill="#D3C16B"/>
<path d="M1010.75 392.578C1010.75 398.101 1006.27 402.578 1000.75 402.578L986.357 402.578L986.357 339.068L1010.75 339.068L1010.75 392.578Z" fill="#D3C16B"/>
<path d="M1010.75 392.578C1010.75 398.101 1006.27 402.578 1000.75 402.578L986.357 402.578L986.357 339.068L1010.75 339.068L1010.75 392.578Z" fill="#D3C16B"/>
<path d="M859.176 477.999C859.176 483.522 854.698 487.999 849.176 487.999L839.586 487.999L839.586 443.385L849.176 443.385C854.698 443.385 859.176 447.862 859.176 453.385L859.176 477.999Z" fill="#D3C16B"/>
<path d="M838.557 467.444C838.557 455.313 842.843 457.737 846.979 450.996C858.413 432.362 863.965 455.313 863.965 467.444C863.965 479.575 861.39 489.574 851.299 489.574C850.283 489.574 838.557 479.575 838.557 467.444Z" fill="#D3C16B"/>
<path d="M859.172 456.846L840.079 474.154L827.669 465.167C841.962 463.746 839.381 457.373 840.079 445.484L859.172 456.846Z" fill="#D3C16B"/>
<path d="M851.041 489.574L693 489.574L693 474.38C693 468.857 697.477 464.38 703 464.38L851.041 464.38L851.041 489.574Z" fill="#D3C16B"/>
<path d="M864 470.068C864 475.591 859.523 480.068 854 480.068L840 480.068L840 416.068L864 416.068L864 470.068Z" fill="#D3C16B"/>
<path d="M1328.02 276.673C1328.02 271.151 1332.5 266.673 1338.02 266.673H1347.28V312.152H1338.02C1332.5 312.152 1328.02 307.675 1328.02 302.152V276.673Z" fill="#2A4865"/>
<path d="M1348.3 287.627C1348.3 299.993 1344.08 297.522 1340.01 304.394C1328.77 323.388 1323.31 299.993 1323.31 287.627C1323.31 275.261 1325.84 265.068 1335.77 265.068C1336.77 265.068 1348.3 275.261 1348.3 287.627Z" fill="#2A4865"/>
<path d="M1328.02 298.43L1346.8 280.787L1359 289.948C1344.95 291.396 1347.49 297.893 1346.8 310.012L1328.02 298.43Z" fill="#2A4865"/>
<path d="M1336.02 265.068H1491.43V280.75C1491.43 286.273 1486.95 290.75 1481.43 290.75H1336.02V265.068Z" fill="#2A4865"/>
<path d="M1323.52 296.47C1323.52 290.947 1328 286.47 1333.52 286.47H1347.51V351.21H1323.52V296.47Z" fill="#2A4865"/>
<path d="M1183.71 351.02C1183.71 345.498 1188.19 341.02 1193.71 341.02H1202.97V386.499H1193.71C1188.19 386.499 1183.71 382.022 1183.71 376.499V351.02Z" fill="#2A4865"/>
<path d="M1203.99 361.974C1203.99 374.34 1199.77 371.868 1195.7 378.741C1184.46 397.735 1179 374.34 1179 361.974C1179 349.608 1181.53 339.415 1191.46 339.415C1192.45 339.415 1203.99 349.608 1203.99 361.974Z" fill="#2A4865"/>
<path d="M1183.71 372.777L1202.49 355.134L1214.69 364.295C1200.64 365.743 1203.18 372.24 1202.49 384.359L1183.71 372.777Z" fill="#2A4865"/>
<path d="M1191.71 339.415H1347.12V355.097C1347.12 360.62 1342.64 365.097 1337.12 365.097H1191.71V339.415Z" fill="#2A4865"/>
<path d="M1323.13 317.479H1347.12V339.415H1323.13V317.479Z" fill="#2A4865"/>
<path d="M1179.21 370.817C1179.21 365.294 1183.69 360.817 1189.21 360.817H1203.2V425.557H1179.21V370.817Z" fill="#2A4865"/>
<path d="M1183.71 351.02C1183.71 345.498 1188.19 341.02 1193.71 341.02H1202.97V386.499H1193.71C1188.19 386.499 1183.71 382.022 1183.71 376.499V351.02Z" fill="#2A4865"/>
<path d="M1203.99 361.974C1203.99 374.34 1199.77 371.868 1195.7 378.741C1184.46 397.735 1179 374.34 1179 361.974C1179 349.608 1181.53 339.415 1191.46 339.415C1192.45 339.415 1203.99 349.608 1203.99 361.974Z" fill="#2A4865"/>
<path d="M1183.71 372.777L1202.49 355.134L1214.69 364.295C1200.64 365.743 1203.18 372.24 1202.49 384.359L1183.71 372.777Z" fill="#2A4865"/>
<path d="M1191.71 339.415H1347.12V355.097C1347.12 360.62 1342.64 365.097 1337.12 365.097H1191.71V339.415Z" fill="#2A4865"/>
<path d="M1323.13 317.479H1347.12V339.415H1323.13V317.479Z" fill="#2A4865"/>
<path d="M1179.21 370.817C1179.21 365.294 1183.69 360.817 1189.21 360.817H1203.2V425.557H1179.21V370.817Z" fill="#2A4865"/>
<path d="M1478.79 359.962L1326.33 359.962L1326.33 344.767C1326.33 339.245 1330.81 334.767 1336.33 334.767L1478.79 334.767L1478.79 359.962Z" fill="#D3C16B"/>
<path d="M1349.86 381.482L1326.33 381.482L1326.33 359.962L1349.86 359.962L1349.86 381.482Z" fill="#D3C16B"/>
<path d="M1345.18 417.562C1345.18 423.085 1340.7 427.562 1335.18 427.562L1325.59 427.562L1325.59 382.947L1335.18 382.947C1340.7 382.947 1345.18 387.425 1345.18 392.947L1345.18 417.562Z" fill="#D3C16B"/>
<path d="M1324.56 407.007C1324.56 394.875 1328.84 397.3 1332.98 390.558C1344.41 371.925 1349.97 394.875 1349.97 407.007C1349.97 419.138 1347.39 429.137 1337.3 429.137C1336.28 429.137 1324.56 419.138 1324.56 407.007Z" fill="#D3C16B"/>
<path d="M1345.17 396.409L1326.08 413.717L1313.67 404.73C1327.96 403.309 1325.38 396.936 1326.08 385.047L1345.17 396.409Z" fill="#D3C16B"/>
<path d="M1337.04 429.137L1179 429.137L1179 413.943C1179 408.42 1183.48 403.943 1189 403.943L1337.04 403.942L1337.04 429.137Z" fill="#D3C16B"/>
<path d="M1349.75 398.142C1349.75 403.664 1345.27 408.142 1339.75 408.142L1325.36 408.142L1325.36 344.631L1349.75 344.631L1349.75 398.142Z" fill="#D3C16B"/>
<path d="M1345.18 417.562C1345.18 423.085 1340.7 427.562 1335.18 427.562L1325.59 427.562L1325.59 382.947L1335.18 382.947C1340.7 382.947 1345.18 387.425 1345.18 392.947L1345.18 417.562Z" fill="#D3C16B"/>
<path d="M1324.56 407.007C1324.56 394.875 1328.84 397.3 1332.98 390.558C1344.41 371.925 1349.97 394.875 1349.97 407.007C1349.97 419.138 1347.39 429.137 1337.3 429.137C1336.28 429.137 1324.56 419.138 1324.56 407.007Z" fill="#D3C16B"/>
<path d="M1345.17 396.409L1326.08 413.717L1313.67 404.73C1327.96 403.309 1325.38 396.936 1326.08 385.047L1345.17 396.409Z" fill="#D3C16B"/>
<path d="M1349.75 398.142C1349.75 403.664 1345.27 408.142 1339.75 408.142L1325.36 408.142L1325.36 344.631L1349.75 344.631L1349.75 398.142Z" fill="#D3C16B"/>
<path d="M1041.02 415.673C1041.02 410.151 1045.5 405.673 1051.02 405.673H1060.28V451.152H1051.02C1045.5 451.152 1041.02 446.675 1041.02 441.152V415.673Z" fill="#2A4865"/>
<path d="M1061.3 426.627C1061.3 438.993 1057.08 436.522 1053.01 443.394C1041.77 462.388 1036.31 438.993 1036.31 426.627C1036.31 414.261 1038.84 404.068 1048.77 404.068C1049.77 404.068 1061.3 414.261 1061.3 426.627Z" fill="#2A4865"/>
<path d="M1041.02 437.43L1059.8 419.787L1072 428.948C1057.95 430.396 1060.49 436.893 1059.8 449.012L1041.02 437.43Z" fill="#2A4865"/>
<path d="M1049 404.068H1203V420.068C1203 425.591 1198.52 430.068 1193 430.068H1049V404.068Z" fill="#2A4865"/>
<path d="M1036.52 435.47C1036.52 429.947 1041 425.47 1046.52 425.47H1060.51V490.21H1036.52V435.47Z" fill="#2A4865"/>
<path d="M896.71 490.02C896.71 484.498 901.188 480.02 906.71 480.02H915.974V525.499H906.71C901.188 525.499 896.71 521.022 896.71 515.499V490.02Z" fill="#2A4865"/>
<path d="M916.987 500.974C916.987 513.34 912.772 510.868 908.704 517.741C897.46 536.735 892.001 513.34 892.001 500.974C892.001 488.608 894.533 478.415 904.456 478.415C905.456 478.415 916.987 488.608 916.987 500.974Z" fill="#2A4865"/>
<path d="M896.714 511.777L915.489 494.134L927.693 503.295C913.638 504.743 916.176 511.24 915.489 523.359L896.714 511.777Z" fill="#2A4865"/>
<path d="M904.709 478.415H1060.12V494.097C1060.12 499.62 1055.64 504.097 1050.12 504.097H904.709V478.415Z" fill="#2A4865"/>
<path d="M1036.13 456.479H1060.12V478.415H1036.13V456.479Z" fill="#2A4865"/>
<path d="M896.71 490.02C896.71 484.498 901.188 480.02 906.71 480.02H915.974V525.499H906.71C901.188 525.499 896.71 521.022 896.71 515.499V490.02Z" fill="#2A4865"/>
<path d="M916.987 500.974C916.987 513.34 912.772 510.869 908.704 517.741C897.46 536.735 892.001 513.34 892.001 500.974C892.001 488.608 894.533 478.415 904.456 478.415C905.456 478.415 916.987 488.608 916.987 500.974Z" fill="#2A4865"/>
<path d="M896.714 511.777L915.489 494.134L927.693 503.295C913.638 504.743 916.176 511.24 915.489 523.359L896.714 511.777Z" fill="#2A4865"/>
<path d="M1036.13 456.479H1060.12V478.415H1036.13V456.479Z" fill="#2A4865"/>
<path d="M892.001 510.068C892.001 504.545 896.478 500.068 902.001 500.068H916.001V547.068H892.001V510.068Z" fill="#2A4865"/>
<path d="M1198.9 492.683C1198.9 498.206 1194.42 502.683 1188.9 502.683L1180 502.683L1180 458.068L1188.9 458.068C1194.42 458.068 1198.9 462.545 1198.9 468.068L1198.9 492.683Z" fill="#D3C16B"/>
<path d="M1179.5 479.547C1179.5 467.415 1183.63 469.84 1187.62 463.098C1198.65 444.465 1204.01 467.415 1204.01 479.547C1204.01 491.678 1201.53 501.677 1191.79 501.677C1190.81 501.677 1179.5 491.678 1179.5 479.547Z" fill="#D3C16B"/>
<path d="M1199.39 468.949L1180.97 486.257L1169 477.27C1182.78 475.849 1180.29 469.476 1180.97 457.587L1199.39 468.949Z" fill="#D3C16B"/>
<path d="M1184.79 502.917L1032.33 502.917L1032.33 487.723C1032.33 482.2 1036.81 477.723 1042.33 477.723L1184.79 477.723L1184.79 502.917Z" fill="#D3C16B"/>
<path d="M1057 543.102L1032 544.068L1032 541.653L1032 501.068L1056.49 501.068L1057 543.102Z" fill="#D3C16B"/>
<path d="M1057 543.102L1032 544.068L1032 541.653L1032 501.068L1056.49 501.068L1057 543.102Z" fill="#D3C16B"/>
<path d="M717 534.068L693 530.568L693 507.318L693 484.068L717 484.068L717 534.068Z" fill="#D3C16B"/>
<path d="M1204 480.068C1204 485.591 1199.52 490.068 1194 490.068L1180 490.068L1180 414.068L1204 414.068L1204 480.068Z" fill="#D3C16B"/>
<path d="M1337.04 429.137L1179 429.137L1179 413.943C1179 408.42 1183.48 403.943 1189 403.943L1337.04 403.942L1337.04 429.137Z" fill="#D3C16B"/>
<path d="M1057 544.783L974.006 546.497L892 547.068V547.068C892 542.65 895.582 539.068 900 539.068L1057 539.068L1057 544.783Z" fill="#D3C16B"/>
<path d="M549 474.068C549 468.545 553.477 464.068 559 464.068H567L569.5 498.568L549 493.568V474.068Z" fill="#2A4865"/>
</g>
<defs>
<clipPath id="clip0_14_46">
<rect width="1440" height="1024" fill="white"/>
</clipPath>
</defs>
</svg>
