<svg width="888" height="434" viewBox="0 0 888 434" fill="none" xmlns="http://www.w3.org/2000/svg">
<path d="M725.021 12.5368C725.021 7.01398 729.498 2.53683 735.021 2.53683H744.284V48.0153H735.021C729.498 48.0153 725.021 43.5382 725.021 38.0153V12.5368Z" fill="#2A4865"/>
<path d="M745.297 23.4903C745.297 35.8564 741.082 33.385 737.014 40.2572C725.771 59.2512 720.311 35.8564 720.311 23.4903C720.311 11.1242 722.843 0.931702 732.767 0.931702C733.766 0.931702 745.297 11.1242 745.297 23.4903Z" fill="#2A4865"/>
<path d="M725.024 34.2934L743.8 16.65L756.004 25.8111C741.948 27.2599 744.487 33.7561 743.8 45.8751L725.024 34.2934Z" fill="#2A4865"/>
<path d="M733.02 0.931702H888.432V16.6137C888.432 22.1365 883.955 26.6137 878.432 26.6137H733.02V0.931702Z" fill="#2A4865"/>
<path d="M720.524 32.3333C720.524 26.8105 725.001 22.3333 730.524 22.3333H744.51V87.0733H720.524V32.3333Z" fill="#2A4865"/>
<path d="M580.71 86.8838C580.71 81.3609 585.187 76.8838 590.71 76.8838H599.973V122.362H590.71C585.187 122.362 580.71 117.885 580.71 112.362V86.8838Z" fill="#2A4865"/>
<path d="M600.986 97.8372C600.986 110.203 596.771 107.732 592.703 114.604C581.459 133.598 576 110.203 576 97.8372C576 85.4711 578.532 75.2786 588.455 75.2786C589.455 75.2786 600.986 85.4711 600.986 97.8372Z" fill="#2A4865"/>
<path d="M580.713 108.64L599.488 90.997L611.692 100.158C597.637 101.607 600.176 108.103 599.488 120.222L580.713 108.64Z" fill="#2A4865"/>
<path d="M588.709 75.2786H744.121V90.9606C744.121 96.4834 739.643 100.961 734.121 100.961H588.709V75.2786Z" fill="#2A4865"/>
<path d="M720.134 53.342H744.121V75.2787H720.134V53.342Z" fill="#2A4865"/>
<path d="M576.212 106.68C576.212 101.157 580.69 96.6803 586.212 96.6803H600.199V161.42H576.212V106.68Z" fill="#2A4865"/>
<path d="M580.71 86.8838C580.71 81.3609 585.187 76.8838 590.71 76.8838H599.973V122.362H590.71C585.187 122.362 580.71 117.885 580.71 112.362V86.8838Z" fill="#2A4865"/>
<path d="M600.986 97.8372C600.986 110.203 596.771 107.732 592.703 114.604C581.459 133.598 576 110.203 576 97.8372C576 85.4711 578.532 75.2786 588.455 75.2786C589.455 75.2786 600.986 85.4711 600.986 97.8372Z" fill="#2A4865"/>
<path d="M580.713 108.64L599.488 90.997L611.692 100.158C597.637 101.607 600.176 108.103 599.488 120.222L580.713 108.64Z" fill="#2A4865"/>
<path d="M588.709 75.2786H744.121V90.9606C744.121 96.4834 739.643 100.961 734.121 100.961H588.709V75.2786Z" fill="#2A4865"/>
<path d="M720.134 53.342H744.121V75.2787H720.134V53.342Z" fill="#2A4865"/>
<path d="M576.212 106.68C576.212 101.157 580.69 96.6803 586.212 96.6803H600.199V161.42H576.212V106.68Z" fill="#2A4865"/>
<path d="M883.637 84.2504C883.637 89.7732 879.16 94.2504 873.637 94.2504L864.74 94.2504L864.74 49.6358L873.637 49.6358C879.16 49.6358 883.637 54.113 883.637 59.6358L883.637 84.2504Z" fill="#D3C16B"/>
<path d="M863.746 73.6949C863.746 61.5637 867.881 63.9882 871.872 57.2465C882.902 38.6134 888.257 61.5637 888.257 73.6949C888.257 85.8261 885.773 95.825 876.038 95.825C875.058 95.825 863.746 85.8261 863.746 73.6949Z" fill="#D3C16B"/>
<path d="M883.634 63.097L865.215 80.4053L853.243 71.4182C867.031 69.9969 864.541 63.6241 865.215 51.7353L883.634 63.097Z" fill="#D3C16B"/>
<path d="M875.79 95.825L723.33 95.825L723.33 80.6309C723.33 75.1081 727.807 70.6309 733.33 70.6309L875.79 70.6309L875.79 95.825Z" fill="#D3C16B"/>
<path d="M746.861 117.345L723.33 117.345L723.33 95.825L746.861 95.825L746.861 117.345Z" fill="#D3C16B"/>
<path d="M888.171 64.6763C888.171 70.1991 883.694 74.6763 878.171 74.6763L864.622 74.6763L864.622 0.975863L888.171 0.975861L888.171 64.6763Z" fill="#D3C16B"/>
<path d="M742.176 153.425C742.176 158.948 737.699 163.425 732.176 163.425L722.587 163.425L722.587 118.811L732.176 118.811C737.699 118.811 742.176 123.288 742.176 128.811L742.176 153.425Z" fill="#D3C16B"/>
<path d="M721.557 142.87C721.557 130.739 725.843 133.163 729.98 126.422C741.413 107.788 746.965 130.739 746.965 142.87C746.965 155.001 744.39 165 734.299 165C733.283 165 721.557 155.001 721.557 142.87Z" fill="#D3C16B"/>
<path d="M742.172 132.272L723.079 149.58L710.669 140.593C724.962 139.172 722.381 132.799 723.079 120.91L742.172 132.272Z" fill="#D3C16B"/>
<path d="M734.041 165L576 165L576 149.806C576 144.283 580.477 139.806 586 139.806L734.041 139.806L734.041 165Z" fill="#D3C16B"/>
<path d="M746.749 134.005C746.749 139.528 742.272 144.005 736.749 144.005L722.357 144.005L722.357 80.4948L746.749 80.4948L746.749 134.005Z" fill="#D3C16B"/>
<path d="M742.176 153.425C742.176 158.948 737.699 163.425 732.176 163.425L722.587 163.425L722.587 118.811L732.176 118.811C737.699 118.811 742.176 123.288 742.176 128.811L742.176 153.425Z" fill="#D3C16B"/>
<path d="M721.557 142.87C721.557 130.739 725.843 133.163 729.98 126.422C741.413 107.788 746.965 130.739 746.965 142.87C746.965 155.001 744.39 165 734.299 165C733.283 165 721.557 155.001 721.557 142.87Z" fill="#D3C16B"/>
<path d="M742.172 132.272L723.079 149.58L710.669 140.593C724.962 139.172 722.381 132.799 723.079 120.91L742.172 132.272Z" fill="#D3C16B"/>
<path d="M734.041 165L576 165L576 149.806C576 144.283 580.477 139.806 586 139.806L734.041 139.806L734.041 165Z" fill="#D3C16B"/>
<path d="M746.749 134.005C746.749 139.528 742.272 144.005 736.749 144.005L722.357 144.005L722.357 80.4948L746.749 80.4948L746.749 134.005Z" fill="#D3C16B"/>
<path d="M440.021 151.605C440.021 146.082 444.498 141.605 450.021 141.605H459.284V187.084H450.021C444.498 187.084 440.021 182.606 440.021 177.084V151.605Z" fill="#2A4865"/>
<path d="M460.297 162.559C460.297 174.925 456.082 172.453 452.014 179.326C440.771 198.319 435.311 174.925 435.311 162.559C435.311 150.192 437.843 140 447.767 140C448.766 140 460.297 150.192 460.297 162.559Z" fill="#2A4865"/>
<path d="M440.024 173.362L458.8 155.718L471.004 164.879C456.948 166.328 459.487 172.824 458.8 184.943L440.024 173.362Z" fill="#2A4865"/>
<path d="M448 140H599V156C599 161.523 594.523 166 589 166H448V140Z" fill="#2A4865"/>
<path d="M435.524 171.402C435.524 165.879 440.001 161.402 445.524 161.402H459.51V226.142H435.524V171.402Z" fill="#2A4865"/>
<path d="M295.71 225.952C295.71 220.429 300.187 215.952 305.71 215.952H314.973V261.431H305.71C300.187 261.431 295.71 256.953 295.71 251.431V225.952Z" fill="#2A4865"/>
<path d="M315.986 236.906C315.986 249.272 311.771 246.8 307.703 253.672C296.459 272.666 291 249.272 291 236.906C291 224.539 293.532 214.347 303.455 214.347C304.455 214.347 315.986 224.539 315.986 236.906Z" fill="#2A4865"/>
<path d="M295.713 247.709L314.488 230.065L326.692 239.226C312.637 240.675 315.176 247.171 314.488 259.29L295.713 247.709Z" fill="#2A4865"/>
<path d="M303.709 214.347H459.121V230.029C459.121 235.552 454.643 240.029 449.121 240.029H303.709V214.347Z" fill="#2A4865"/>
<path d="M435.134 192.41H459.121V214.347H435.134V192.41Z" fill="#2A4865"/>
<path d="M291.212 245.749C291.212 240.226 295.69 235.749 301.212 235.749H315.199V300.489H291.212V245.749Z" fill="#2A4865"/>
<path d="M295.71 225.952C295.71 220.429 300.187 215.952 305.71 215.952H314.973V261.431H305.71C300.187 261.431 295.71 256.953 295.71 251.431V225.952Z" fill="#2A4865"/>
<path d="M315.986 236.906C315.986 249.272 311.771 246.8 307.703 253.672C296.459 272.666 291 249.272 291 236.906C291 224.539 293.532 214.347 303.455 214.347C304.455 214.347 315.986 224.539 315.986 236.906Z" fill="#2A4865"/>
<path d="M295.713 247.709L314.488 230.065L326.692 239.226C312.637 240.675 315.176 247.171 314.488 259.29L295.713 247.709Z" fill="#2A4865"/>
<path d="M303.709 214.347H459.121V230.029C459.121 235.552 454.643 240.029 449.121 240.029H303.709V214.347Z" fill="#2A4865"/>
<path d="M435.134 192.41H459.121V214.347H435.134V192.41Z" fill="#2A4865"/>
<path d="M291.212 245.749C291.212 240.226 295.69 235.749 301.212 235.749H315.199V300.489H291.212V245.749Z" fill="#2A4865"/>
<path d="M148.71 296.605C148.71 291.082 153.187 286.605 158.71 286.605H167.973V332.084H158.71C153.187 332.084 148.71 327.606 148.71 322.084V296.605Z" fill="#2A4865"/>
<path d="M168.986 307.559C168.986 319.925 164.771 317.453 160.703 324.326C149.459 343.319 144 319.925 144 307.559C144 295.192 146.532 285 156.455 285C157.455 285 168.986 295.192 168.986 307.559Z" fill="#2A4865"/>
<path d="M148.713 318.362L167.488 300.718L179.692 309.879C165.637 311.328 168.176 317.824 167.488 329.943L148.713 318.362Z" fill="#2A4865"/>
<path d="M156.709 285H312.121V300.682C312.121 306.205 307.643 310.682 302.121 310.682H156.709V285Z" fill="#2A4865"/>
<path d="M144.212 316.402C144.212 310.879 148.69 306.402 154.212 306.402H168.199V371.142H144.212V316.402Z" fill="#2A4865"/>
<path d="M148.71 296.605C148.71 291.082 153.187 286.605 158.71 286.605H167.973V332.084H158.71C153.187 332.084 148.71 327.606 148.71 322.084V296.605Z" fill="#2A4865"/>
<path d="M168.986 307.559C168.986 319.925 164.771 317.453 160.703 324.326C149.459 343.319 144 319.925 144 307.559C144 295.192 146.532 285 156.455 285C157.455 285 168.986 295.192 168.986 307.559Z" fill="#2A4865"/>
<path d="M148.713 318.362L167.488 300.718L179.692 309.879C165.637 311.328 168.176 317.824 167.488 329.943L148.713 318.362Z" fill="#2A4865"/>
<path d="M156.709 285H312.121V300.682C312.121 306.205 307.643 310.682 302.121 310.682H156.709V285Z" fill="#2A4865"/>
<path d="M144.212 316.402C144.212 310.879 148.69 306.402 154.212 306.402H168.199V371.142H144.212V316.402Z" fill="#2A4865"/>
<path d="M7.70874 351H163.121V366.682C163.121 372.205 158.643 376.682 153.121 376.682H7.70874V351Z" fill="#2A4865"/>
<path d="M7.70874 351H163.121V366.682C163.121 372.205 158.643 376.682 153.121 376.682H7.70874V351Z" fill="#2A4865"/>
<path d="M598.637 223.319C598.637 228.842 594.16 233.319 588.637 233.319L579.74 233.319L579.74 188.704L588.637 188.704C594.16 188.704 598.637 193.181 598.637 198.704L598.637 223.319Z" fill="#D3C16B"/>
<path d="M578.746 212.763C578.746 200.632 582.881 203.057 586.872 196.315C597.902 177.682 603.257 200.632 603.257 212.763C603.257 224.894 600.773 234.893 591.038 234.893C590.058 234.893 578.746 224.894 578.746 212.763Z" fill="#D3C16B"/>
<path d="M598.634 202.165L580.215 219.474L568.243 210.487C582.031 209.065 579.541 202.692 580.215 190.804L598.634 202.165Z" fill="#D3C16B"/>
<path d="M590.79 234.893L438.33 234.893L438.33 219.699C438.33 214.176 442.807 209.699 448.33 209.699L590.79 209.699L590.79 234.893Z" fill="#D3C16B"/>
<path d="M461.861 256.413L438.33 256.413L438.33 234.893L461.861 234.893L461.861 256.413Z" fill="#D3C16B"/>
<path d="M603.171 203.745C603.171 209.267 598.694 213.745 593.171 213.745L579.622 213.745L579.622 140.044L603.171 140.044L603.171 203.745Z" fill="#D3C16B"/>
<path d="M457.176 298.93C457.176 304.453 452.698 308.93 447.176 308.93L437.586 308.93L437.586 264.316L447.176 264.316C452.698 264.316 457.176 268.793 457.176 274.316L457.176 298.93Z" fill="#D3C16B"/>
<path d="M436.557 288.375C436.557 276.244 440.843 278.668 444.979 271.926C456.413 253.293 461.965 276.244 461.965 288.375C461.965 300.506 459.39 310.505 449.299 310.505C448.283 310.505 436.557 300.506 436.557 288.375Z" fill="#D3C16B"/>
<path d="M457.172 277.777L438.079 295.085L425.669 286.098C439.962 284.677 437.38 278.304 438.079 266.415L457.172 277.777Z" fill="#D3C16B"/>
<path d="M449.041 310.505L291 310.505L291 295.311C291 289.788 295.477 285.311 301 285.311L449.041 285.311L449.041 310.505Z" fill="#D3C16B"/>
<path d="M461.749 279.51C461.749 285.033 457.272 289.51 451.749 289.51L437.357 289.51L437.357 226L461.749 226L461.749 279.51Z" fill="#D3C16B"/>
<path d="M461.749 279.51C461.749 285.033 457.272 289.51 451.749 289.51L437.357 289.51L437.357 226L461.749 226L461.749 279.51Z" fill="#D3C16B"/>
<path d="M310.176 364.931C310.176 370.454 305.698 374.931 300.176 374.931L290.586 374.931L290.586 330.317L300.176 330.317C305.698 330.317 310.176 334.794 310.176 340.317L310.176 364.931Z" fill="#D3C16B"/>
<path d="M289.557 354.376C289.557 342.244 293.843 344.669 297.979 337.927C309.413 319.294 314.965 342.244 314.965 354.376C314.965 366.507 312.39 376.506 302.299 376.506C301.283 376.506 289.557 366.507 289.557 354.376Z" fill="#D3C16B"/>
<path d="M310.172 343.778L291.079 361.086L278.669 352.099C292.962 350.678 290.38 344.305 291.079 332.416L310.172 343.778Z" fill="#D3C16B"/>
<path d="M302.041 376.506L144 376.506L144 361.312C144 355.789 148.477 351.312 154 351.312L302.041 351.312L302.041 376.506Z" fill="#D3C16B"/>
<path d="M315 357C315 362.523 310.523 367 305 367L291 367L291 303L315 303L315 357Z" fill="#D3C16B"/>
<path d="M779.021 163.605C779.021 158.082 783.498 153.605 789.021 153.605H798.284V199.084H789.021C783.498 199.084 779.021 194.606 779.021 189.084V163.605Z" fill="#2A4865"/>
<path d="M799.297 174.559C799.297 186.925 795.082 184.453 791.014 191.326C779.771 210.319 774.311 186.925 774.311 174.559C774.311 162.192 776.843 152 786.767 152C787.766 152 799.297 162.192 799.297 174.559Z" fill="#2A4865"/>
<path d="M779.024 185.362L797.8 167.718L810.004 176.879C795.948 178.328 798.487 184.824 797.8 196.943L779.024 185.362Z" fill="#2A4865"/>
<path d="M787.02 152H942.432V167.682C942.432 173.205 937.955 177.682 932.432 177.682H787.02V152Z" fill="#2A4865"/>
<path d="M774.524 183.402C774.524 177.879 779.001 173.402 784.524 173.402H798.51V238.142H774.524V183.402Z" fill="#2A4865"/>
<path d="M634.71 237.952C634.71 232.429 639.187 227.952 644.71 227.952H653.973V273.431H644.71C639.187 273.431 634.71 268.953 634.71 263.431V237.952Z" fill="#2A4865"/>
<path d="M654.986 248.906C654.986 261.272 650.771 258.8 646.703 265.672C635.459 284.666 630 261.272 630 248.906C630 236.539 632.532 226.347 642.455 226.347C643.455 226.347 654.986 236.539 654.986 248.906Z" fill="#2A4865"/>
<path d="M634.713 259.709L653.488 242.065L665.692 251.226C651.637 252.675 654.176 259.171 653.488 271.29L634.713 259.709Z" fill="#2A4865"/>
<path d="M642.709 226.347H798.121V242.029C798.121 247.552 793.643 252.029 788.121 252.029H642.709V226.347Z" fill="#2A4865"/>
<path d="M774.134 204.41H798.121V226.347H774.134V204.41Z" fill="#2A4865"/>
<path d="M630.212 257.749C630.212 252.226 634.69 247.749 640.212 247.749H654.199V312.489H630.212V257.749Z" fill="#2A4865"/>
<path d="M634.71 237.952C634.71 232.429 639.187 227.952 644.71 227.952H653.973V273.431H644.71C639.187 273.431 634.71 268.953 634.71 263.431V237.952Z" fill="#2A4865"/>
<path d="M654.986 248.906C654.986 261.272 650.771 258.8 646.703 265.672C635.459 284.666 630 261.272 630 248.906C630 236.539 632.532 226.347 642.455 226.347C643.455 226.347 654.986 236.539 654.986 248.906Z" fill="#2A4865"/>
<path d="M634.713 259.709L653.488 242.065L665.692 251.226C651.637 252.675 654.176 259.171 653.488 271.29L634.713 259.709Z" fill="#2A4865"/>
<path d="M642.709 226.347H798.121V242.029C798.121 247.552 793.643 252.029 788.121 252.029H642.709V226.347Z" fill="#2A4865"/>
<path d="M774.134 204.41H798.121V226.347H774.134V204.41Z" fill="#2A4865"/>
<path d="M630.212 257.749C630.212 252.226 634.69 247.749 640.212 247.749H654.199V312.489H630.212V257.749Z" fill="#2A4865"/>
<path d="M929.79 246.893L777.33 246.893L777.33 231.699C777.33 226.176 781.807 221.699 787.33 221.699L929.79 221.699L929.79 246.893Z" fill="#D3C16B"/>
<path d="M800.861 268.413L777.33 268.413L777.33 246.893L800.861 246.893L800.861 268.413Z" fill="#D3C16B"/>
<path d="M796.176 304.494C796.176 310.016 791.699 314.494 786.176 314.494L776.587 314.494L776.587 269.879L786.176 269.879C791.699 269.879 796.176 274.356 796.176 279.879L796.176 304.494Z" fill="#D3C16B"/>
<path d="M775.557 293.938C775.557 281.807 779.843 284.232 783.98 277.49C795.413 258.857 800.965 281.807 800.965 293.938C800.965 306.069 798.39 316.068 788.299 316.068C787.283 316.068 775.557 306.069 775.557 293.938Z" fill="#D3C16B"/>
<path d="M796.172 283.34L777.079 300.649L764.669 291.661C778.962 290.24 776.381 283.867 777.079 271.979L796.172 283.34Z" fill="#D3C16B"/>
<path d="M788.041 316.068L630 316.068L630 300.874C630 295.351 634.477 290.874 640 290.874L788.041 290.874L788.041 316.068Z" fill="#D3C16B"/>
<path d="M800.749 285.073C800.749 290.596 796.272 295.073 790.749 295.073L776.357 295.073L776.357 231.563L800.749 231.563L800.749 285.073Z" fill="#D3C16B"/>
<path d="M796.176 304.494C796.176 310.016 791.699 314.494 786.176 314.494L776.587 314.494L776.587 269.879L786.176 269.879C791.699 269.879 796.176 274.356 796.176 279.879L796.176 304.494Z" fill="#D3C16B"/>
<path d="M775.557 293.938C775.557 281.807 779.843 284.232 783.98 277.49C795.413 258.857 800.965 281.807 800.965 293.938C800.965 306.069 798.39 316.068 788.299 316.068C787.283 316.068 775.557 306.069 775.557 293.938Z" fill="#D3C16B"/>
<path d="M796.172 283.34L777.079 300.649L764.669 291.661C778.962 290.24 776.381 283.867 777.079 271.979L796.172 283.34Z" fill="#D3C16B"/>
<path d="M800.749 285.073C800.749 290.596 796.272 295.073 790.749 295.073L776.357 295.073L776.357 231.563L800.749 231.563L800.749 285.073Z" fill="#D3C16B"/>
<path d="M492.021 302.605C492.021 297.082 496.498 292.605 502.021 292.605H511.284V338.084H502.021C496.498 338.084 492.021 333.606 492.021 328.084V302.605Z" fill="#2A4865"/>
<path d="M512.297 313.559C512.297 325.925 508.082 323.453 504.014 330.326C492.771 349.319 487.311 325.925 487.311 313.559C487.311 301.192 489.843 291 499.767 291C500.766 291 512.297 301.192 512.297 313.559Z" fill="#2A4865"/>
<path d="M492.024 324.362L510.8 306.718L523.004 315.879C508.948 317.328 511.487 323.824 510.8 335.943L492.024 324.362Z" fill="#2A4865"/>
<path d="M500 291H654V307C654 312.523 649.523 317 644 317H500V291Z" fill="#2A4865"/>
<path d="M487.524 322.402C487.524 316.879 492.001 312.402 497.524 312.402H511.51V377.142H487.524V322.402Z" fill="#2A4865"/>
<path d="M347.711 376.952C347.711 371.429 352.188 366.952 357.711 366.952H366.974V412.431H357.711C352.188 412.431 347.711 407.953 347.711 402.431V376.952Z" fill="#2A4865"/>
<path d="M367.987 387.906C367.987 400.272 363.772 397.8 359.704 404.672C348.46 423.666 343.001 400.272 343.001 387.906C343.001 375.539 345.533 365.347 355.456 365.347C356.456 365.347 367.987 375.539 367.987 387.906Z" fill="#2A4865"/>
<path d="M347.714 398.709L366.489 381.065L378.693 390.226C364.638 391.675 367.176 398.171 366.489 410.29L347.714 398.709Z" fill="#2A4865"/>
<path d="M355.709 365.347H511.121V381.029C511.121 386.552 506.644 391.029 501.121 391.029H355.709V365.347Z" fill="#2A4865"/>
<path d="M487.135 343.41H511.121V365.347H487.135V343.41Z" fill="#2A4865"/>
<path d="M347.711 376.952C347.711 371.429 352.188 366.952 357.711 366.952H366.974V412.431H357.711C352.188 412.431 347.711 407.953 347.711 402.431V376.952Z" fill="#2A4865"/>
<path d="M367.987 387.906C367.987 400.272 363.772 397.8 359.704 404.672C348.46 423.666 343.001 400.272 343.001 387.906C343.001 375.539 345.533 365.347 355.456 365.347C356.456 365.347 367.987 375.539 367.987 387.906Z" fill="#2A4865"/>
<path d="M347.714 398.709L366.489 381.065L378.693 390.226C364.638 391.675 367.176 398.171 366.489 410.29L347.714 398.709Z" fill="#2A4865"/>
<path d="M487.135 343.41H511.121V365.347H487.135V343.41Z" fill="#2A4865"/>
<path d="M343.001 397C343.001 391.477 347.478 387 353.001 387H367.001V434H343.001V397Z" fill="#2A4865"/>
<path d="M649.897 379.615C649.897 385.137 645.42 389.615 639.897 389.615L631 389.615L631 345L639.897 345C645.42 345 649.897 349.477 649.897 355L649.897 379.615Z" fill="#D3C16B"/>
<path d="M630.499 366.478C630.499 354.347 634.633 356.772 638.624 350.03C649.654 331.397 655.01 354.347 655.01 366.478C655.01 378.61 652.526 388.608 642.791 388.608C641.811 388.608 630.499 378.61 630.499 366.478Z" fill="#D3C16B"/>
<path d="M650.386 355.881L631.968 373.189L619.996 364.202C633.784 362.78 631.294 356.408 631.968 344.519L650.386 355.881Z" fill="#D3C16B"/>
<path d="M635.79 389.849L483.33 389.849L483.33 374.655C483.33 369.132 487.807 364.655 493.33 364.655L635.79 364.655L635.79 389.849Z" fill="#D3C16B"/>
<path d="M508 430.034L483 431L483 428.584L483 388L507.49 388L508 430.034Z" fill="#D3C16B"/>
<path d="M508 430.034L483 431L483 428.584L483 388L507.49 388L508 430.034Z" fill="#D3C16B"/>
<path d="M168 421L144 417.5L144 394.25L144 371L168 371L168 421Z" fill="#D3C16B"/>
<path d="M655 367C655 372.523 650.523 377 645 377L631 377L631 301L655 301L655 367Z" fill="#D3C16B"/>
<path d="M788.041 316.068L630 316.068L630 300.874C630 295.351 634.477 290.874 640 290.874L788.041 290.874L788.041 316.068Z" fill="#D3C16B"/>
<path d="M508 431.714L425.006 433.429L343 434C343 429.582 346.582 426 351 426L508 426L508 431.714Z" fill="#D3C16B"/>
<path d="M0 361C0 355.477 4.47715 351 10 351H18L20.5 385.5L0 380.5V361Z" fill="#2A4865"/>
</svg>
