<svg width="569" height="406" viewBox="0 0 569 406" fill="none" xmlns="http://www.w3.org/2000/svg">
<rect x="42.54" y="52.1708" width="486.315" height="292.293" rx="10" fill="#D9D9D9"/>
<path d="M561.044 348.122C561.044 353.645 556.567 358.122 551.044 358.122L527.152 358.122L527.152 283L551.044 283C556.567 283 561.044 287.477 561.044 293L561.044 348.122Z" fill="#D3C16B"/>
<path d="M531.389 319.677C531.389 299.674 538.965 285.732 549.041 283.894C561.805 286.415 568.105 299.674 568.105 319.677C568.105 339.681 562.964 354.686 549.204 357.439C538.965 359.488 531.389 339.681 531.389 319.677Z" fill="#D3C16B"/>
<path d="M542.51 317.623L526.825 334.902L511.827 326.18C523.568 324.761 526.937 320.769 527.511 308.9L542.51 317.623Z" fill="#D3C16B"/>
<path d="M416 405.927C410.477 405.927 406 401.45 406 395.927L406 370.415L504.479 370.415L504.479 395.927C504.479 401.45 500.002 405.927 494.479 405.927L416 405.927Z" fill="#D3C16B"/>
<path d="M535.684 358.122L406 358.122L406 335.342C406 329.819 410.477 325.342 416 325.342L535.684 325.342L535.684 358.122Z" fill="#D3C16B"/>
<path d="M447.465 371.781L406 371.781L406 358.122L447.465 358.122L447.465 371.781Z" fill="#D3C16B"/>
<ellipse cx="479.374" cy="389.537" rx="8.53184" ry="6.82927" transform="rotate(180 479.374 389.537)" fill="#D9D9D9"/>
<path d="M7.06079 57.8049C7.06079 52.282 11.5379 47.8049 17.0608 47.8049H40.9528V122.927H17.0608C11.5379 122.927 7.06079 118.45 7.06079 112.927V57.8049Z" fill="#2A4865"/>
<path d="M36.7163 86.2494C36.7163 106.253 29.1395 120.195 19.0642 122.033C6.30043 119.512 0 106.253 0 86.2494C0 66.2459 5.14128 51.2414 18.9013 48.4878C29.1395 46.439 36.7163 66.2459 36.7163 86.2494Z" fill="#2A4865"/>
<path d="M25.5953 88.3037L41.28 71.0244L56.2783 79.7471C44.5365 81.166 41.1677 85.1575 40.5936 97.0265L25.5953 88.3037Z" fill="#2A4865"/>
<path d="M152.105 -3.45566e-07C157.628 -1.54715e-07 162.105 4.47715 162.105 10L162.105 35.5122L63.626 35.5122L63.626 10C63.626 4.47715 68.1032 -3.24838e-06 73.626 -3.05753e-06L152.105 -3.45566e-07Z" fill="#2A4865"/>
<path d="M32.4209 47.8049H162.105V70.5854C162.105 76.1082 157.628 80.5854 152.105 80.5854H32.4209V47.8049Z" fill="#2A4865"/>
<path d="M120.64 34.1463H162.105V47.8049H120.64V34.1463Z" fill="#2A4865"/>
<ellipse cx="88.7311" cy="16.3902" rx="8.53184" ry="6.82927" fill="#D9D9D9"/>
</svg>
