<svg width="570" height="408" viewBox="0 0 570 408" fill="none" xmlns="http://www.w3.org/2000/svg">
<path d="M39.4064 349.337L531.594 349.337L531.594 58.6635L39.4064 58.6635L39.4064 349.337Z" fill="#D9D9D9"/>
<path d="M530.468 261.066L553.989 261.066C559.392 265.233 564.614 272.824 566.282 278.373C569.961 283.017 570.345 325.322 564.948 337.955C562.607 345.506 549.637 349.6 543.794 349.452L455.535 349.452L455.535 364.851L509.137 364.851L509.137 395.128C508.413 400.14 504.366 406.664 499.735 406.996L425.954 406.996C421.079 407.171 416.328 401.3 416.552 395.128L416.552 322.706C416.467 318.733 421.535 312.354 425.954 312.354L520.623 312.354C520.623 312.354 530.468 312.354 530.468 293.96L530.468 261.066Z" fill="#D3C16B" stroke="#D3C16B" stroke-width="1.19783"/>
<path d="M484.24 381.026C479.528 381.026 475.709 384.084 475.709 387.855C475.709 391.627 479.528 394.685 484.24 394.685C488.952 394.685 492.772 391.627 492.772 387.855C492.772 384.084 488.952 381.026 484.24 381.026Z" fill="#D9D9D9"/>
<path d="M40.0771 147L16.5561 147C11.1533 142.833 5.93074 135.241 4.26258 129.693C0.584049 125.049 0.199966 82.7436 5.59693 70.1108C7.93811 62.5598 20.9076 58.466 26.7507 58.614L115.01 58.614L115.01 43.2148L61.4084 43.2148L61.4084 12.9372C62.1324 7.92561 66.1786 1.40151 70.8098 1.06939L144.591 1.0694C149.466 0.894819 154.217 6.76538 153.993 12.9373L153.993 85.3602C154.078 89.3326 149.01 95.7121 144.591 95.7121L49.9215 95.7121C49.9215 95.7121 40.0771 95.7121 40.0771 114.106L40.0771 147Z" fill="#2A4865" stroke="#2A4865" stroke-width="1.19783"/>
<path d="M86.4684 16.3415C81.7564 16.3415 77.9366 19.399 77.9366 23.1707C77.9366 26.9424 81.7564 30 86.4684 30C91.1804 30 95.0002 26.9424 95.0002 23.1707C95.0002 19.399 91.1804 16.3415 86.4684 16.3415Z" fill="#D9D9D9"/>
</svg>
